<svg width="20" height="20" viewBox="0 0 20 20" fill="none" xmlns="http://www.w3.org/2000/svg">
<path d="M9.99984 1.66675C8.90549 1.66675 7.82186 1.8823 6.81081 2.30109C5.79976 2.71987 4.8811 3.3337 4.10728 4.10752C2.54448 5.67033 1.6665 7.78994 1.6665 10.0001C1.6665 13.6834 4.05817 16.8084 7.3665 17.9167C7.78317 17.9834 7.9165 17.7251 7.9165 17.5001V16.0917C5.60817 16.5917 5.1165 14.9751 5.1165 14.9751C4.73317 14.0084 4.1915 13.7501 4.1915 13.7501C3.43317 13.2334 4.24984 13.2501 4.24984 13.2501C5.08317 13.3084 5.52484 14.1084 5.52484 14.1084C6.24984 15.3751 7.47484 15.0001 7.94984 14.8001C8.02484 14.2584 8.2415 13.8917 8.47484 13.6834C6.62484 13.4751 4.68317 12.7584 4.68317 9.58341C4.68317 8.65841 4.99984 7.91675 5.5415 7.32508C5.45817 7.11675 5.1665 6.25008 5.62484 5.12508C5.62484 5.12508 6.32484 4.90008 7.9165 5.97508C8.57484 5.79175 9.2915 5.70008 9.99984 5.70008C10.7082 5.70008 11.4248 5.79175 12.0832 5.97508C13.6748 4.90008 14.3748 5.12508 14.3748 5.12508C14.8332 6.25008 14.5415 7.11675 14.4582 7.32508C14.9998 7.91675 15.3165 8.65841 15.3165 9.58341C15.3165 12.7667 13.3665 13.4667 11.5082 13.6751C11.8082 13.9334 12.0832 14.4417 12.0832 15.2167V17.5001C12.0832 17.7251 12.2165 17.9917 12.6415 17.9167C15.9498 16.8001 18.3332 13.6834 18.3332 10.0001C18.3332 8.90573 18.1176 7.8221 17.6988 6.81105C17.28 5.80001 16.6662 4.88135 15.8924 4.10752C15.1186 3.3337 14.1999 2.71987 13.1889 2.30109C12.1778 1.8823 11.0942 1.66675 9.99984 1.66675Z" fill="#1A1A1A"/>
</svg>
