<svg width="20" height="20" viewBox="0 0 20 20" fill="none" xmlns="http://www.w3.org/2000/svg">
<path d="M10.0001 1.66675C8.90573 1.66675 7.8221 1.8823 6.81105 2.30109C5.80001 2.71987 4.88135 3.3337 4.10752 4.10752C2.54472 5.67033 1.66675 7.78994 1.66675 10.0001C1.66675 13.6834 4.05841 16.8084 7.36675 17.9167C7.78342 17.9834 7.91675 17.7251 7.91675 17.5001V16.0917C5.60841 16.5917 5.11675 14.9751 5.11675 14.9751C4.73341 14.0084 4.19175 13.7501 4.19175 13.7501C3.43341 13.2334 4.25008 13.2501 4.25008 13.2501C5.08341 13.3084 5.52508 14.1084 5.52508 14.1084C6.25008 15.3751 7.47508 15.0001 7.95008 14.8001C8.02508 14.2584 8.24175 13.8917 8.47508 13.6834C6.62508 13.4751 4.68341 12.7584 4.68341 9.58341C4.68341 8.65841 5.00008 7.91675 5.54175 7.32508C5.45842 7.11675 5.16675 6.25008 5.62508 5.12508C5.62508 5.12508 6.32508 4.90008 7.91675 5.97508C8.57508 5.79175 9.29175 5.70008 10.0001 5.70008C10.7084 5.70008 11.4251 5.79175 12.0834 5.97508C13.6751 4.90008 14.3751 5.12508 14.3751 5.12508C14.8334 6.25008 14.5417 7.11675 14.4584 7.32508C15.0001 7.91675 15.3167 8.65841 15.3167 9.58341C15.3167 12.7667 13.3667 13.4667 11.5084 13.6751C11.8084 13.9334 12.0834 14.4417 12.0834 15.2167V17.5001C12.0834 17.7251 12.2167 17.9917 12.6417 17.9167C15.9501 16.8001 18.3334 13.6834 18.3334 10.0001C18.3334 8.90573 18.1179 7.8221 17.6991 6.81105C17.2803 5.80001 16.6665 4.88135 15.8926 4.10752C15.1188 3.3337 14.2002 2.71987 13.1891 2.30109C12.1781 1.8823 11.0944 1.66675 10.0001 1.66675Z" fill="#1A1A1A"/>
</svg>
