<svg width="292" height="303" viewBox="0 0 292 303" fill="none" xmlns="http://www.w3.org/2000/svg">
<path d="M291.667 89.8658V90.9304C291.667 103.472 291.667 109.757 288.648 114.891C285.629 120.024 280.131 123.072 269.165 129.182L257.6 135.599C265.562 108.649 268.231 79.6866 269.208 54.9241L269.354 51.7012L269.383 50.9429C278.877 54.2387 284.215 56.7033 287.54 61.3116C291.667 67.0429 291.667 74.6554 291.667 89.8658ZM0 89.8658V90.9304C0 103.472 2.17309e-07 109.757 3.01875 114.891C6.0375 120.024 11.5354 123.072 22.5021 129.182L34.0812 135.599C26.1042 108.649 23.4354 79.6866 22.4583 54.9241L22.3125 51.7012L22.2979 50.9429C12.7896 54.2387 7.45208 56.7033 4.12708 61.3116C0 67.0429 0 74.6699 0 89.8658Z" fill="#F8F8F8"/>
<path fill-rule="evenodd" clip-rule="evenodd" d="M145.833 0.00343068C171.85 0.00343068 193.273 2.29301 209.665 5.06385C226.275 7.86385 234.573 9.26385 241.515 17.8097C248.456 26.3555 248.077 35.5868 247.348 54.0493C244.84 117.472 231.16 196.674 156.771 203.674V255.212H177.625C180.995 255.214 184.26 256.383 186.866 258.521C189.471 260.658 191.256 263.632 191.917 266.937L194.687 280.733H233.333C236.234 280.733 239.016 281.885 241.067 283.936C243.118 285.987 244.271 288.769 244.271 291.67C244.271 294.571 243.118 297.353 241.067 299.404C239.016 301.455 236.234 302.608 233.333 302.608H58.3333C55.4325 302.608 52.6505 301.455 50.5993 299.404C48.5481 297.353 47.3958 294.571 47.3958 291.67C47.3958 288.769 48.5481 285.987 50.5993 283.936C52.6505 281.885 55.4325 280.733 58.3333 280.733H96.9791L99.7499 266.937C100.41 263.632 102.195 260.658 104.801 258.521C107.406 256.383 110.671 255.214 114.042 255.212H134.896V203.674C60.5208 196.674 46.8416 117.458 44.3333 54.0493C43.5895 35.5868 43.2249 26.3409 50.1666 17.8097C57.0937 9.26385 65.3916 7.86385 82.002 5.06385C103.101 1.60579 124.452 -0.0868747 145.833 0.00343068ZM159.717 61.2388L158.287 58.6722C152.746 48.7118 149.975 43.7534 145.833 43.7534C141.692 43.7534 138.921 48.7118 133.379 58.6722L131.95 61.2388C130.375 64.068 129.587 65.468 128.362 66.4013C127.123 67.3347 125.592 67.6847 122.529 68.3701L119.758 69.0118C108.996 71.4472 103.615 72.6576 102.331 76.7701C101.048 80.8972 104.723 85.1847 112.058 93.7597L113.954 95.9764C116.04 98.4118 117.09 99.6222 117.556 101.139C118.023 102.656 117.862 104.274 117.556 107.526L117.265 110.487C116.156 121.935 115.602 127.666 118.942 130.203C122.296 132.741 127.342 130.422 137.419 125.785L140.015 124.589C142.887 123.276 144.317 122.62 145.833 122.62C147.35 122.62 148.779 123.276 151.652 124.589L154.248 125.785C164.325 130.437 169.371 132.741 172.725 130.203C176.079 127.666 175.51 121.935 174.402 110.487L174.11 107.526C173.804 104.274 173.644 102.656 174.11 101.139C174.577 99.6368 175.627 98.4118 177.712 95.9764L179.608 93.7597C186.944 85.1847 190.619 80.8972 189.335 76.7701C188.052 72.6576 182.671 71.4472 171.908 69.0118L169.137 68.3701C166.075 67.6847 164.544 67.3493 163.304 66.4013C162.079 65.468 161.292 64.068 159.717 61.2388Z" fill="#F8F8F8"/>
<mask id="mask0_528_1848" style="mask-type:alpha" maskUnits="userSpaceOnUse" x="0" y="0" width="292" height="303">
<path d="M291.667 89.8658V90.9304C291.667 103.472 291.667 109.757 288.648 114.891C285.629 120.024 280.131 123.072 269.165 129.182L257.6 135.599C265.562 108.649 268.231 79.6866 269.208 54.9241L269.354 51.7012L269.383 50.9429C278.877 54.2387 284.215 56.7033 287.54 61.3116C291.667 67.0429 291.667 74.6554 291.667 89.8658ZM0 89.8658V90.9304C0 103.472 2.17309e-07 109.757 3.01875 114.891C6.0375 120.024 11.5354 123.072 22.5021 129.182L34.0812 135.599C26.1042 108.649 23.4354 79.6866 22.4583 54.9241L22.3125 51.7012L22.2979 50.9429C12.7896 54.2387 7.45208 56.7033 4.12708 61.3116C0 67.0429 0 74.6699 0 89.8658Z" fill="#F8F8F8"/>
<path fill-rule="evenodd" clip-rule="evenodd" d="M145.833 0.00343068C171.85 0.00343068 193.273 2.29301 209.665 5.06385C226.275 7.86385 234.573 9.26385 241.515 17.8097C248.456 26.3555 248.077 35.5868 247.348 54.0493C244.84 117.472 231.16 196.674 156.771 203.674V255.212H177.625C180.995 255.214 184.26 256.383 186.866 258.521C189.471 260.658 191.256 263.632 191.917 266.937L194.687 280.733H233.333C236.234 280.733 239.016 281.885 241.067 283.936C243.118 285.987 244.271 288.769 244.271 291.67C244.271 294.571 243.118 297.353 241.067 299.404C239.016 301.455 236.234 302.608 233.333 302.608H58.3333C55.4325 302.608 52.6505 301.455 50.5993 299.404C48.5481 297.353 47.3958 294.571 47.3958 291.67C47.3958 288.769 48.5481 285.987 50.5993 283.936C52.6505 281.885 55.4325 280.733 58.3333 280.733H96.9791L99.7499 266.937C100.41 263.632 102.195 260.658 104.801 258.521C107.406 256.383 110.671 255.214 114.042 255.212H134.896V203.674C60.5208 196.674 46.8416 117.458 44.3333 54.0493C43.5895 35.5868 43.2249 26.3409 50.1666 17.8097C57.0937 9.26385 65.3916 7.86385 82.002 5.06385C103.101 1.60579 124.452 -0.0868747 145.833 0.00343068ZM159.717 61.2388L158.287 58.6722C152.746 48.7118 149.975 43.7534 145.833 43.7534C141.692 43.7534 138.921 48.7118 133.379 58.6722L131.95 61.2388C130.375 64.068 129.587 65.468 128.362 66.4013C127.123 67.3347 125.592 67.6847 122.529 68.3701L119.758 69.0118C108.996 71.4472 103.615 72.6576 102.331 76.7701C101.048 80.8972 104.723 85.1847 112.058 93.7597L113.954 95.9764C116.04 98.4118 117.09 99.6222 117.556 101.139C118.023 102.656 117.862 104.274 117.556 107.526L117.265 110.487C116.156 121.935 115.602 127.666 118.942 130.203C122.296 132.741 127.342 130.422 137.419 125.785L140.015 124.589C142.887 123.276 144.317 122.62 145.833 122.62C147.35 122.62 148.779 123.276 151.652 124.589L154.248 125.785C164.325 130.437 169.371 132.741 172.725 130.203C176.079 127.666 175.51 121.935 174.402 110.487L174.11 107.526C173.804 104.274 173.644 102.656 174.11 101.139C174.577 99.6368 175.627 98.4118 177.712 95.9764L179.608 93.7597C186.944 85.1847 190.619 80.8972 189.335 76.7701C188.052 72.6576 182.671 71.4472 171.908 69.0118L169.137 68.3701C166.075 67.6847 164.544 67.3493 163.304 66.4013C162.079 65.468 161.292 64.068 159.717 61.2388Z" fill="#F8F8F8"/>
</mask>
<g mask="url(#mask0_528_1848)">
<circle cx="146.083" cy="275.753" r="27.0834" fill="#040404"/>
<mask id="mask1_528_1848" style="mask-type:alpha" maskUnits="userSpaceOnUse" x="119" y="248" width="55" height="55">
<circle cx="146.083" cy="275.753" r="27.0834" fill="#040404"/>
</mask>
<g mask="url(#mask1_528_1848)">
<circle cx="130.811" cy="267.404" r="5.29449" fill="#D9D9D9" fill-opacity="0.3"/>
<circle cx="126.942" cy="294.08" r="2.64725" fill="#D9D9D9" fill-opacity="0.3"/>
<circle cx="144.658" cy="295.099" r="4.88723" fill="#D9D9D9" fill-opacity="0.3"/>
<circle cx="157.895" cy="258.648" r="5.09086" fill="#D9D9D9" fill-opacity="0.3"/>
<circle cx="155.655" cy="266.59" r="2.44361" fill="#D9D9D9" fill-opacity="0.3"/>
<circle cx="165.633" cy="288.786" r="2.64725" fill="#D9D9D9" fill-opacity="0.3"/>
</g>
</g>
</svg>
