<svg width="15" height="17" viewBox="0 0 15 17" fill="none" xmlns="http://www.w3.org/2000/svg">
<path d="M13.3333 1.83335H12.5V1.00002C12.5 0.541687 12.125 0.166687 11.6667 0.166687C11.2083 0.166687 10.8333 0.541687 10.8333 1.00002V1.83335H4.16667V1.00002C4.16667 0.541687 3.79167 0.166687 3.33333 0.166687C2.875 0.166687 2.5 0.541687 2.5 1.00002V1.83335H1.66667C1.22464 1.83335 0.800716 2.00895 0.488155 2.32151C0.175595 2.63407 0 3.05799 0 3.50002V15.1667C0 16.0834 0.75 16.8334 1.66667 16.8334H13.3333C14.25 16.8334 15 16.0834 15 15.1667V3.50002C15 2.58335 14.25 1.83335 13.3333 1.83335ZM7.5 4.33335C8.88333 4.33335 10 5.45002 10 6.83335C10 8.21669 8.88333 9.33335 7.5 9.33335C6.11667 9.33335 5 8.21669 5 6.83335C5 5.45002 6.11667 4.33335 7.5 4.33335ZM12.5 14.3334H2.5V13.5C2.5 11.8334 5.83333 10.9167 7.5 10.9167C9.16667 10.9167 12.5 11.8334 12.5 13.5V14.3334Z" fill="#1A1A1A"/>
</svg>
