<svg width="18" height="19" viewBox="0 0 18 19" fill="none" xmlns="http://www.w3.org/2000/svg">
<path d="M17.7715 0.717938C17.6703 0.617192 17.5424 0.54744 17.4029 0.516882C17.2634 0.486325 17.1181 0.496231 16.984 0.545438L0.484014 6.54544C0.341715 6.59941 0.219204 6.6954 0.132753 6.82065C0.0463009 6.94591 0 7.0945 0 7.24669C0 7.39888 0.0463009 7.54747 0.132753 7.67272C0.219204 7.79797 0.341715 7.89396 0.484014 7.94794L6.92651 10.5204L11.6815 5.75044L12.739 6.80794L7.96151 11.5854L10.5415 18.0279C10.5971 18.1675 10.6933 18.2871 10.8177 18.3714C10.942 18.4556 11.0888 18.5006 11.239 18.5004C11.3906 18.4973 11.5376 18.4484 11.6608 18.36C11.784 18.2716 11.8775 18.148 11.929 18.0054L17.929 1.50544C17.9801 1.37274 17.9924 1.22826 17.9646 1.08883C17.9367 0.9494 17.8697 0.82077 17.7715 0.717938Z" fill="#1A1A1A"/>
</svg>
