<svg width="15" height="17" viewBox="0 0 15 17" fill="none" xmlns="http://www.w3.org/2000/svg">
<path d="M13.3333 1.83341H12.5V1.00008C12.5 0.541748 12.125 0.166748 11.6667 0.166748C11.2083 0.166748 10.8333 0.541748 10.8333 1.00008V1.83341H4.16667V1.00008C4.16667 0.541748 3.79167 0.166748 3.33333 0.166748C2.875 0.166748 2.5 0.541748 2.5 1.00008V1.83341H1.66667C1.22464 1.83341 0.800716 2.00901 0.488155 2.32157C0.175595 2.63413 0 3.05805 0 3.50008V15.1667C0 16.0834 0.75 16.8334 1.66667 16.8334H13.3333C14.25 16.8334 15 16.0834 15 15.1667V3.50008C15 2.58341 14.25 1.83341 13.3333 1.83341ZM7.5 4.33341C8.88333 4.33341 10 5.45008 10 6.83341C10 8.21675 8.88333 9.33341 7.5 9.33341C6.11667 9.33341 5 8.21675 5 6.83341C5 5.45008 6.11667 4.33341 7.5 4.33341ZM12.5 14.3334H2.5V13.5001C2.5 11.8334 5.83333 10.9167 7.5 10.9167C9.16667 10.9167 12.5 11.8334 12.5 13.5001V14.3334Z" fill="#1A1A1A"/>
</svg>
