<svg width="15" height="17" viewBox="0 0 15 17" fill="none" xmlns="http://www.w3.org/2000/svg">
<path d="M13.3333 1.83334H12.5V1.00001C12.5 0.541672 12.125 0.166672 11.6667 0.166672C11.2083 0.166672 10.8333 0.541672 10.8333 1.00001V1.83334H4.16667V1.00001C4.16667 0.541672 3.79167 0.166672 3.33333 0.166672C2.875 0.166672 2.5 0.541672 2.5 1.00001V1.83334H1.66667C1.22464 1.83334 0.800716 2.00893 0.488155 2.32149C0.175595 2.63405 0 3.05798 0 3.50001V15.1667C0 16.0833 0.75 16.8333 1.66667 16.8333H13.3333C14.25 16.8333 15 16.0833 15 15.1667V3.50001C15 2.58334 14.25 1.83334 13.3333 1.83334ZM7.5 4.33334C8.88333 4.33334 10 5.45001 10 6.83334C10 8.21667 8.88333 9.33334 7.5 9.33334C6.11667 9.33334 5 8.21667 5 6.83334C5 5.45001 6.11667 4.33334 7.5 4.33334ZM12.5 14.3333H2.5V13.5C2.5 11.8333 5.83333 10.9167 7.5 10.9167C9.16667 10.9167 12.5 11.8333 12.5 13.5V14.3333Z" fill="#1A1A1A"/>
</svg>
