<svg width="15" height="17" viewBox="0 0 15 17" fill="none" xmlns="http://www.w3.org/2000/svg">
<path d="M13.3333 1.83317H12.5V0.999837C12.5 0.541504 12.125 0.166504 11.6667 0.166504C11.2083 0.166504 10.8333 0.541504 10.8333 0.999837V1.83317H4.16667V0.999837C4.16667 0.541504 3.79167 0.166504 3.33333 0.166504C2.875 0.166504 2.5 0.541504 2.5 0.999837V1.83317H1.66667C1.22464 1.83317 0.800716 2.00877 0.488155 2.32133C0.175595 2.63389 0 3.05781 0 3.49984V15.1665C0 16.0832 0.75 16.8332 1.66667 16.8332H13.3333C14.25 16.8332 15 16.0832 15 15.1665V3.49984C15 2.58317 14.25 1.83317 13.3333 1.83317ZM7.5 4.33317C8.88333 4.33317 10 5.44984 10 6.83317C10 8.2165 8.88333 9.33317 7.5 9.33317C6.11667 9.33317 5 8.2165 5 6.83317C5 5.44984 6.11667 4.33317 7.5 4.33317ZM12.5 14.3332H2.5V13.4998C2.5 11.8332 5.83333 10.9165 7.5 10.9165C9.16667 10.9165 12.5 11.8332 12.5 13.4998V14.3332Z" fill="#1A1A1A"/>
</svg>
