<svg width="18" height="19" viewBox="0 0 18 19" fill="none" xmlns="http://www.w3.org/2000/svg">
<path d="M17.7715 0.717968C17.6703 0.617223 17.5424 0.547471 17.4029 0.516913C17.2634 0.486355 17.1181 0.496262 16.984 0.545468L0.484014 6.54547C0.341715 6.59944 0.219204 6.69543 0.132753 6.82068C0.0463009 6.94594 0 7.09453 0 7.24672C0 7.39891 0.0463009 7.5475 0.132753 7.67275C0.219204 7.79801 0.341715 7.89399 0.484014 7.94797L6.92651 10.5205L11.6815 5.75047L12.739 6.80797L7.96151 11.5855L10.5415 18.028C10.5971 18.1675 10.6933 18.2872 10.8177 18.3714C10.942 18.4557 11.0888 18.5006 11.239 18.5005C11.3906 18.4974 11.5376 18.4484 11.6608 18.36C11.784 18.2717 11.8775 18.148 11.929 18.0055L17.929 1.50547C17.9801 1.37278 17.9924 1.22829 17.9646 1.08886C17.9367 0.949431 17.8697 0.820801 17.7715 0.717968Z" fill="#1A1A1A"/>
</svg>
