<svg width="15" height="17" viewBox="0 0 15 17" fill="none" xmlns="http://www.w3.org/2000/svg">
<path d="M13.3333 1.83329H12.5V0.999959C12.5 0.541626 12.125 0.166626 11.6667 0.166626C11.2083 0.166626 10.8333 0.541626 10.8333 0.999959V1.83329H4.16667V0.999959C4.16667 0.541626 3.79167 0.166626 3.33333 0.166626C2.875 0.166626 2.5 0.541626 2.5 0.999959V1.83329H1.66667C1.22464 1.83329 0.800716 2.00889 0.488155 2.32145C0.175595 2.63401 0 3.05793 0 3.49996V15.1666C0 16.0833 0.75 16.8333 1.66667 16.8333H13.3333C14.25 16.8333 15 16.0833 15 15.1666V3.49996C15 2.58329 14.25 1.83329 13.3333 1.83329ZM7.5 4.33329C8.88333 4.33329 10 5.44996 10 6.83329C10 8.21663 8.88333 9.33329 7.5 9.33329C6.11667 9.33329 5 8.21663 5 6.83329C5 5.44996 6.11667 4.33329 7.5 4.33329ZM12.5 14.3333H2.5V13.5C2.5 11.8333 5.83333 10.9166 7.5 10.9166C9.16667 10.9166 12.5 11.8333 12.5 13.5V14.3333Z" fill="#1A1A1A"/>
</svg>
