<svg width="15" height="17" viewBox="0 0 15 17" fill="none" xmlns="http://www.w3.org/2000/svg">
<path d="M13.3333 1.83332H12.5V0.99999C12.5 0.541656 12.125 0.166656 11.6667 0.166656C11.2083 0.166656 10.8333 0.541656 10.8333 0.99999V1.83332H4.16667V0.99999C4.16667 0.541656 3.79167 0.166656 3.33333 0.166656C2.875 0.166656 2.5 0.541656 2.5 0.99999V1.83332H1.66667C1.22464 1.83332 0.800716 2.00892 0.488155 2.32148C0.175595 2.63404 0 3.05796 0 3.49999V15.1667C0 16.0833 0.75 16.8333 1.66667 16.8333H13.3333C14.25 16.8333 15 16.0833 15 15.1667V3.49999C15 2.58332 14.25 1.83332 13.3333 1.83332ZM7.5 4.33332C8.88333 4.33332 10 5.44999 10 6.83332C10 8.21666 8.88333 9.33332 7.5 9.33332C6.11667 9.33332 5 8.21666 5 6.83332C5 5.44999 6.11667 4.33332 7.5 4.33332ZM12.5 14.3333H2.5V13.5C2.5 11.8333 5.83333 10.9167 7.5 10.9167C9.16667 10.9167 12.5 11.8333 12.5 13.5V14.3333Z" fill="#1A1A1A"/>
</svg>
